<svg width="24" height="24" viewBox="0 0 24 24" fill="none" xmlns="http://www.w3.org/2000/svg">
<path d="M5 20V23" stroke="#737373" style="stroke:#737373;stroke:color(display-p3 0.4514 0.4514 0.4514);stroke-opacity:1;" stroke-width="2"/>
<path d="M8.5 17V20" stroke="#737373" style="stroke:#737373;stroke:color(display-p3 0.4514 0.4514 0.4514);stroke-opacity:1;" stroke-width="2"/>
<path d="M12 20V23" stroke="#737373" style="stroke:#737373;stroke:color(display-p3 0.4514 0.4514 0.4514);stroke-opacity:1;" stroke-width="2"/>
<path d="M15.5 17V20" stroke="#737373" style="stroke:#737373;stroke:color(display-p3 0.4514 0.4514 0.4514);stroke-opacity:1;" stroke-width="2"/>
<path d="M19 20V23" stroke="#737373" style="stroke:#737373;stroke:color(display-p3 0.4514 0.4514 0.4514);stroke-opacity:1;" stroke-width="2"/>
<path d="M8 2C4.13401 2 1 5.13401 1 9V14H23V11C23 8.23858 20.7614 6 18 6C16.7656 6 15.6356 6.44734 14.7634 7.18877C13.9652 4.20074 11.2396 2 8 2Z" fill="#DBDBDB" style="fill:#DBDBDB;fill:color(display-p3 0.8569 0.8569 0.8569);fill-opacity:1;"/>
<path d="M8 2C4.13401 2 1 5.13401 1 9V14H23V11C23 8.23858 20.7614 6 18 6C16.7656 6 15.6356 6.44734 14.7634 7.18877C13.9652 4.20074 11.2396 2 8 2Z" stroke="#737373" style="stroke:#737373;stroke:color(display-p3 0.4514 0.4514 0.4514);stroke-opacity:1;" stroke-width="2"/>
</svg>
