<svg width="24" height="24" viewBox="0 0 24 24" fill="none" xmlns="http://www.w3.org/2000/svg">
<path d="M13.25 3.5C13.25 4.88071 12.1307 6 10.75 6C9.36929 6 8.25 4.88071 8.25 3.5C8.25 2.11929 9.36929 1 10.75 1C12.1307 1 13.25 2.11929 13.25 3.5Z" fill="#DBDBDB" style="fill:#DBDBDB;fill:color(display-p3 0.8569 0.8569 0.8569);fill-opacity:1;"/>
<path d="M13.25 3.5C13.25 4.88071 12.1307 6 10.75 6C9.36929 6 8.25 4.88071 8.25 3.5C8.25 2.11929 9.36929 1 10.75 1C12.1307 1 13.25 2.11929 13.25 3.5Z" stroke="#737373" style="stroke:#737373;stroke:color(display-p3 0.4514 0.4514 0.4514);stroke-opacity:1;" stroke-width="2"/>
<path d="M9.9999 8.75L9.36703 14.6008C9.31934 15.0418 9.50887 15.475 9.86509 15.7392L13.25 18.25L14 23.75M9.9999 8.75L14.5 12L19 10M9.9999 8.75L4 12.25L6.5 14.75" stroke="#737373" style="stroke:#737373;stroke:color(display-p3 0.4514 0.4514 0.4514);stroke-opacity:1;" stroke-width="2"/>
<path d="M19 6.5V24" stroke="#737373" style="stroke:#737373;stroke:color(display-p3 0.4514 0.4514 0.4514);stroke-opacity:1;" stroke-width="2"/>
<path d="M8 18.25L4.75 23.375" stroke="#737373" style="stroke:#737373;stroke:color(display-p3 0.4514 0.4514 0.4514);stroke-opacity:1;" stroke-width="2"/>
</svg>
