<svg width="24" height="24" viewBox="0 0 24 24" fill="none" xmlns="http://www.w3.org/2000/svg">
<g clip-path="url(#clip0_5553_2501)">
<path d="M5 7.5C9.25735 3.24265 2.5 2 0 2V0H24.0001V21C10.5 21 -3.5 16 5 7.5Z" fill="#D8D8D8" style="fill:#D8D8D8;fill:color(display-p3 0.8471 0.8471 0.8471);fill-opacity:1;"/>
<path d="M0 2C2.5 2 9.25735 3.24265 5 7.5C-3.5 16 10.5 21 24.0001 21" stroke="#737373" style="stroke:#737373;stroke:color(display-p3 0.4514 0.4514 0.4514);stroke-opacity:1;" stroke-width="2"/>
<path d="M17 15C17 16.5188 18.2312 17.75 19.75 17.75C21.2688 17.75 22.5 16.5188 22.5 15" stroke="#737373" style="stroke:#737373;stroke:color(display-p3 0.4514 0.4514 0.4514);stroke-opacity:1;" stroke-width="2"/>
<path d="M8 9C8 10.5188 9.2312 11.75 10.75 11.75C12.2688 11.75 13.5 10.5188 13.5 9C13.5 10.5188 14.7312 11.75 16.25 11.75C17.7688 11.75 19 10.5188 19 9" stroke="#737373" style="stroke:#737373;stroke:color(display-p3 0.4514 0.4514 0.4514);stroke-opacity:1;" stroke-width="2"/>
<path d="M12 3C12 4.5188 13.2312 5.75 14.75 5.75C16.2688 5.75 17.5 4.5188 17.5 3C17.5 4.5188 18.7312 5.75 20.25 5.75C21.7688 5.75 23 4.5188 23 3" stroke="#737373" style="stroke:#737373;stroke:color(display-p3 0.4514 0.4514 0.4514);stroke-opacity:1;" stroke-width="2"/>
</g>
<defs>
<clipPath id="clip0_5553_2501">
<rect width="24" height="24" fill="white" style="fill:white;fill-opacity:1;"/>
</clipPath>
</defs>
</svg>
