<svg width="41" height="41" viewBox="0 0 41 41" fill="none" xmlns="http://www.w3.org/2000/svg">
<mask
    id="path-1-outside-1_4569_1988"
    maskUnits="userSpaceOnUse"
    x="0"
    y="0"
    width="41"
    height="41"
    fill="black"
  >
<rect fill="white" width="41" height="41" />
<path
      fill-rule="evenodd"
      clip-rule="evenodd"
      d="M19.0005 5.0716C11.6373 5.77844 5.77872 11.6368 5.07165 19L13.5 19C14.3284 19 15 19.6716 15 20.5C15 21.3284 14.3284 22 13.5 22L5.07165 22C5.77872 29.3632 11.6373 35.2216 19.0005 35.9284V27.5C19.0005 26.6716 19.6721 26 20.5005 26C21.3289 26 22.0005 26.6716 22.0005 27.5V35.9283C29.3633 35.221 35.2213 29.3628 35.9284 22H27.5C26.6716 22 26 21.3284 26 20.5C26 19.6716 26.6716 19 27.5 19H35.9284C35.2213 11.6372 29.3633 5.77896 22.0005 5.0717V13.5C22.0005 14.3284 21.3289 15 20.5005 15C19.6721 15 19.0005 14.3284 19.0005 13.5V5.0716ZM20.5 2C10.2827 2 2 10.2827 2 20.5C2 30.7173 10.2827 39 20.5 39C30.7173 39 39 30.7173 39 20.5C39 10.2827 30.7173 2 20.5 2Z"
    />
</mask>
<path
    fill-rule="evenodd"
    clip-rule="evenodd"
    d="M19.0005 5.0716C11.6373 5.77844 5.77872 11.6368 5.07165 19L13.5 19C14.3284 19 15 19.6716 15 20.5C15 21.3284 14.3284 22 13.5 22L5.07165 22C5.77872 29.3632 11.6373 35.2216 19.0005 35.9284V27.5C19.0005 26.6716 19.6721 26 20.5005 26C21.3289 26 22.0005 26.6716 22.0005 27.5V35.9283C29.3633 35.221 35.2213 29.3628 35.9284 22H27.5C26.6716 22 26 21.3284 26 20.5C26 19.6716 26.6716 19 27.5 19H35.9284C35.2213 11.6372 29.3633 5.77896 22.0005 5.0717V13.5C22.0005 14.3284 21.3289 15 20.5005 15C19.6721 15 19.0005 14.3284 19.0005 13.5V5.0716ZM20.5 2C10.2827 2 2 10.2827 2 20.5C2 30.7173 10.2827 39 20.5 39C30.7173 39 39 30.7173 39 20.5C39 10.2827 30.7173 2 20.5 2Z"
    fill="#294578"
    style="fill:#294578;fill:color(display-p3 0.1608 0.2706 0.4706);fill-opacity:1;"
  />
<path
    d="M19.0005 5.0716H21.0005V2.87042L18.8094 3.08075L19.0005 5.0716ZM5.07165 19L3.08081 18.8088L2.87039 21H5.07165L5.07165 19ZM13.5 19V21V19ZM13.5 22V24V22ZM5.07165 22L5.07165 20H2.87039L3.08081 22.1912L5.07165 22ZM19.0005 35.9284L18.8094 37.9192L21.0005 38.1296V35.9284H19.0005ZM22.0005 35.9283H20.0005V38.1296L22.1917 37.9191L22.0005 35.9283ZM35.9284 22L37.9192 22.1912L38.1296 20H35.9284V22ZM35.9284 19V21H38.1296L37.9192 18.8088L35.9284 19ZM22.0005 5.0717L22.1917 3.08086L20.0005 2.87037V5.0717H22.0005ZM18.8094 3.08075C10.4927 3.87912 3.87943 10.4922 3.08081 18.8088L7.06249 19.1912C7.678 12.7815 12.7818 7.67776 19.1916 7.06245L18.8094 3.08075ZM5.07165 21L13.5 21V17L5.07165 17L5.07165 21ZM13.5 21C13.2239 21 13 20.7761 13 20.5H17C17 18.567 15.433 17 13.5 17V21ZM13 20.5C13 20.2239 13.2239 20 13.5 20V24C15.433 24 17 22.433 17 20.5H13ZM13.5 20L5.07165 20L5.07165 24L13.5 24V20ZM3.08081 22.1912C3.87943 30.5078 10.4927 37.1209 18.8094 37.9192L19.1916 33.9375C12.7818 33.3222 7.678 28.2185 7.06249 21.8088L3.08081 22.1912ZM17.0005 27.5V35.9284H21.0005V27.5H17.0005ZM20.5005 24C18.5675 24 17.0005 25.567 17.0005 27.5H21.0005C21.0005 27.7761 20.7766 28 20.5005 28V24ZM24.0005 27.5C24.0005 25.567 22.4335 24 20.5005 24V28C20.2243 28 20.0005 27.7761 20.0005 27.5H24.0005ZM24.0005 35.9283V27.5H20.0005V35.9283H24.0005ZM22.1917 37.9191C30.5079 37.1203 37.1206 30.5074 37.9192 22.1912L33.9375 21.8088C33.322 28.2182 28.2186 33.3218 21.8092 33.9375L22.1917 37.9191ZM27.5 24H35.9284V20H27.5V24ZM24 20.5C24 22.433 25.567 24 27.5 24V20C27.7761 20 28 20.2239 28 20.5H24ZM27.5 17C25.567 17 24 18.567 24 20.5H28C28 20.7761 27.7761 21 27.5 21V17ZM35.9284 17H27.5V21H35.9284V17ZM37.9192 18.8088C37.1206 10.4926 30.5079 3.87971 22.1917 3.08086L21.8092 7.06253C28.2186 7.67821 33.322 12.7818 33.9375 19.1912L37.9192 18.8088ZM24.0005 13.5V5.0717H20.0005V13.5H24.0005ZM20.5005 17C22.4335 17 24.0005 15.433 24.0005 13.5H20.0005C20.0005 13.2239 20.2243 13 20.5005 13V17ZM17.0005 13.5C17.0005 15.433 18.5675 17 20.5005 17V13C20.7766 13 21.0005 13.2239 21.0005 13.5H17.0005ZM17.0005 5.0716V13.5H21.0005V5.0716H17.0005ZM4 20.5C4 11.3873 11.3873 4 20.5 4V0C9.17816 0 0 9.17816 0 20.5H4ZM20.5 37C11.3873 37 4 29.6127 4 20.5H0C0 31.8218 9.17816 41 20.5 41V37ZM37 20.5C37 29.6127 29.6127 37 20.5 37V41C31.8218 41 41 31.8218 41 20.5H37ZM20.5 4C29.6127 4 37 11.3873 37 20.5H41C41 9.17816 31.8218 0 20.5 0V4Z"
    fill="white"
    style="fill:white;fill-opacity:1;"
    mask="url(#path-1-outside-1_4569_1988)"
  />
</svg>
